<?xml version="1.0" encoding="iso-8859-1"?>
<!-- Generator: Adobe Illustrator 19.0.0, SVG Export Plug-In . SVG Version: 6.00 Build 0)  -->
<svg version="1.1" id="Layer_1" xmlns="http://www.w3.org/2000/svg" xmlns:xlink="http://www.w3.org/1999/xlink" x="0px" y="0px"
	 viewBox="0 0 512 512" style="enable-background:new 0 0 512 512;" xml:space="preserve">
<path style="fill:#EE4948;" d="M512,277.695v136.882c0,44.245-99.581,80.114-222.422,80.114c-61.463,0-117.094-8.981-157.347-23.485
	c-40.197-14.504-65.061-34.52-65.061-56.628V277.695H512z"/>
<ellipse style="fill:#CCCCCC;" cx="289.578" cy="277.688" rx="222.416" ry="80.111"/>
<path style="fill:#CE3838;" d="M132.231,277.695v193.51c-40.198-14.504-65.061-34.52-65.061-56.628V277.695H132.231z"/>
<path style="fill:#E6E6E6;" d="M511.416,283.503c-8.28,41.525-104.441,74.296-221.843,74.296c-86.075,0-160.72-17.618-197.7-43.38
	c-13.46-9.376-21.927-19.835-24.13-30.916c2.615-13.136,14.02-25.4,32.124-36.034c39.109-22.96,109.434-38.275,189.707-38.275
	C406.988,209.195,503.16,241.966,511.416,283.503z"/>
<g>
	<path style="fill:#CCCCCC;" d="M289.579,348.908c-89.219,0-184.044-20.598-184.044-58.772c0-38.173,94.823-58.771,184.044-58.771
		s184.044,20.598,184.044,58.771C473.622,328.31,378.798,348.908,289.579,348.908z M289.579,245.062
		c-46.697,0-90.51,5.303-123.37,14.931c-34.637,10.149-46.977,22.225-46.977,30.143c0,7.918,12.34,19.994,46.977,30.143
		c32.86,9.629,76.673,14.932,123.37,14.932s90.51-5.303,123.37-14.932c34.637-10.149,46.977-22.227,46.977-30.143
		s-12.34-19.994-46.977-30.143C380.088,250.365,336.275,245.062,289.579,245.062z"/>
	<path style="fill:#CCCCCC;" d="M289.579,316.056c-31.622,0-61.407-2.016-83.866-5.675c-28.059-4.572-40.029-10.626-40.029-20.244
		c0-9.619,11.972-15.672,40.029-20.244c22.461-3.659,52.244-5.675,83.866-5.675s61.407,2.016,83.866,5.675
		c28.059,4.572,40.029,10.626,40.029,20.244c0,9.619-11.972,15.674-40.029,20.244C350.985,314.041,321.2,316.056,289.579,316.056z
		 M181.793,290.136c3.92,1.858,12.705,4.861,31.584,7.56c21.029,3.007,48.092,4.663,76.203,4.663s55.174-1.656,76.203-4.663
		c18.879-2.699,27.663-5.703,31.584-7.56c-3.92-1.858-12.705-4.861-31.584-7.56c-21.029-3.007-48.092-4.663-76.203-4.663
		s-55.174,1.656-76.203,4.663C194.498,285.275,185.714,288.279,181.793,290.136z M400.296,291.932h0.012H400.296z"/>
	<path style="fill:#CCCCCC;" d="M222.411,314.42H91.871c-13.46-9.376-21.927-19.835-24.13-30.916
		c2.615-13.136,14.02-25.4,32.124-36.034L222.411,314.42z"/>
</g>
<path style="fill:#5E93CC;" d="M444.831,97.424v136.884c0,44.245-99.581,80.114-222.422,80.114
	c-61.463,0-117.094-8.981-157.347-23.485C24.864,276.43,0,256.416,0,234.307V97.424H444.831z"/>
<path style="fill:#4E84AD;" d="M65.061,97.424v193.512C24.864,276.43,0,256.416,0,234.307V97.424H65.061z"/>
<path style="fill:#CCCCCC;" d="M444.827,97.42c0,1.955-0.199,3.897-0.573,5.815c-8.28,41.525-104.441,74.296-221.843,74.296
	S8.86,144.76,0.58,103.235c-0.374-1.917-0.573-3.86-0.573-5.815c0-44.252,99.572-80.111,222.404-80.111
	S444.827,53.169,444.827,97.42z"/>
<g>
	<path style="fill:#E6E6E6;" d="M444.254,103.235c-8.28,41.525-104.441,74.296-221.843,74.296S8.86,144.76,0.58,103.235
		c8.255-41.537,104.416-74.309,221.831-74.309S435.998,61.698,444.254,103.235z"/>
	<path style="fill:#E6E6E6;" d="M173.729,209.206c-28.658,0-54.367,12.566-71.966,32.47c17.599,19.905,43.308,32.47,71.966,32.47
		s54.367-12.566,71.966-32.47C228.096,221.77,202.387,209.206,173.729,209.206z"/>
	<path style="fill:#E6E6E6;" d="M294.994,241.675c0-10.814,1.839-21.193,5.178-30.872c-21.533,3.967-40.549,15.117-54.478,30.872
		c13.93,15.756,32.945,26.906,54.478,30.872C296.833,262.868,294.994,252.49,294.994,241.675z"/>
	<path style="fill:#E6E6E6;" d="M305.508,389.552c28.658,0,54.367,12.566,71.965,32.47c-17.599,19.904-43.308,32.47-71.966,32.47
		c-28.658,0-54.367-12.566-71.966-32.47C251.141,402.117,276.85,389.552,305.508,389.552z"/>
	<path style="fill:#E6E6E6;" d="M184.243,422.022c0-10.814-1.839-21.193-5.178-30.872c21.533,3.967,40.549,15.117,54.478,30.872
		c-13.93,15.756-32.945,26.906-54.478,30.872C182.404,443.214,184.243,432.836,184.243,422.022z"/>
</g>
<g>
	<path style="fill:#CCCCCC;" d="M222.412,168.641c-89.219,0-184.044-20.598-184.044-58.772c0-38.173,94.823-58.771,184.044-58.771
		s184.044,20.597,184.044,58.771S311.633,168.641,222.412,168.641z M222.412,64.794c-46.697,0-90.51,5.303-123.37,14.931
		c-34.637,10.149-46.977,22.225-46.977,30.143s12.34,19.994,46.977,30.143c32.86,9.629,76.673,14.932,123.37,14.932
		s90.51-5.303,123.37-14.932c34.637-10.149,46.977-22.227,46.977-30.143s-12.34-19.994-46.977-30.143
		C312.923,70.097,269.109,64.794,222.412,64.794z"/>
	<path style="fill:#CCCCCC;" d="M222.412,135.789c-31.622,0-61.407-2.016-83.866-5.675c-28.059-4.572-40.029-10.626-40.029-20.244
		s11.972-15.672,40.029-20.244c22.461-3.659,52.244-5.675,83.866-5.675s61.407,2.016,83.866,5.675
		c28.059,4.572,40.029,10.626,40.029,20.244s-11.972,15.674-40.029,20.244C283.819,133.773,254.035,135.789,222.412,135.789z
		 M114.627,109.869c3.92,1.858,12.705,4.861,31.584,7.56c21.029,3.007,48.092,4.663,76.203,4.663s55.174-1.656,76.203-4.663
		c18.879-2.699,27.663-5.703,31.584-7.56c-3.92-1.858-12.705-4.861-31.584-7.56c-21.029-3.007-48.092-4.663-76.203-4.663
		s-55.174,1.656-76.203,4.663C127.332,105.008,118.547,108.011,114.627,109.869z M333.131,111.663h0.012H333.131z"/>
</g>
<g>
</g>
<g>
</g>
<g>
</g>
<g>
</g>
<g>
</g>
<g>
</g>
<g>
</g>
<g>
</g>
<g>
</g>
<g>
</g>
<g>
</g>
<g>
</g>
<g>
</g>
<g>
</g>
<g>
</g>
</svg>
