<svg id="건강검진_icon" xmlns="http://www.w3.org/2000/svg" width="50" height="50" viewBox="0 0 50 50">
  <defs>
    <style>
      .cls-1 {
        fill: #fff;
      }

      .cls-2 {
        fill: #40444b;
      }

      .cls-3 {
        fill: #e84d4c;
      }

      .cls-4 {
        fill: none;
      }
    </style>
  </defs>
  <g id="main_icon_1" transform="translate(0.822 0.5)">
    <g id="그룹_214" data-name="그룹 214" transform="translate(4.714 1.179)">
      <rect id="사각형_314" data-name="사각형 314" class="cls-1" width="36.501" height="41.54" transform="translate(1.452 5.199)"/>
      <path id="패스_1061" data-name="패스 1061" class="cls-2" d="M188.582,868.787H151.419a1.08,1.08,0,0,1-1.08-1.08V826.48a1.08,1.08,0,0,1,1.08-1.08h37.163a1.08,1.08,0,0,1,1.08,1.08v41.228a1.08,1.08,0,0,1-1.08,1.08M152.5,866.628h35V827.559h-35Z" transform="translate(-150.339 -821.335)"/>
      <rect id="사각형_315" data-name="사각형 315" class="cls-3" width="12.775" height="6.678" transform="translate(13.273 1.08)"/>
      <path id="패스_1062" data-name="패스 1062" class="cls-2" d="M195.277,823.875H182.5a1.08,1.08,0,0,1-1.08-1.08v-6.678a1.08,1.08,0,0,1,1.08-1.079h12.775a1.079,1.079,0,0,1,1.08,1.079V822.8a1.08,1.08,0,0,1-1.08,1.08m-11.695-2.159H194.2V817.2H183.583Z" transform="translate(-169.229 -815.038)"/>
      <path id="패스_1063" data-name="패스 1063" class="cls-2" d="M173.554,854.236a1.077,1.077,0,0,1-.763-.316l-3.023-3.023a1.079,1.079,0,1,1,1.526-1.527l2.26,2.26,4.419-4.419a1.08,1.08,0,1,1,1.527,1.527l-5.182,5.182a1.077,1.077,0,0,1-.763.316" transform="translate(-161.954 -834.398)"/>
      <path id="패스_1064" data-name="패스 1064" class="cls-2" d="M211.43,850.888H201.354a1.08,1.08,0,1,1,0-2.159H211.43a1.08,1.08,0,1,1,0,2.159" transform="translate(-180.685 -835.512)"/>
      <path id="패스_1065" data-name="패스 1065" class="cls-2" d="M211.43,860.429H201.354a1.08,1.08,0,1,1,0-2.159H211.43a1.08,1.08,0,1,1,0,2.159" transform="translate(-180.685 -841.311)"/>
      <path id="패스_1066" data-name="패스 1066" class="cls-2" d="M173.554,881.757a1.077,1.077,0,0,1-.763-.316l-3.023-3.023a1.079,1.079,0,1,1,1.526-1.527l2.26,2.26,4.419-4.419a1.08,1.08,0,1,1,1.527,1.527l-5.182,5.182a1.077,1.077,0,0,1-.763.316" transform="translate(-161.954 -851.123)"/>
      <path id="패스_1067" data-name="패스 1067" class="cls-2" d="M211.43,878.409H201.354a1.08,1.08,0,0,1,0-2.159H211.43a1.08,1.08,0,0,1,0,2.159" transform="translate(-180.685 -852.237)"/>
      <path id="패스_1068" data-name="패스 1068" class="cls-2" d="M211.43,887.95H201.354a1.079,1.079,0,1,1,0-2.159H211.43a1.079,1.079,0,1,1,0,2.159" transform="translate(-180.685 -858.035)"/>
      <path id="패스_1069" data-name="패스 1069" class="cls-2" d="M173.554,909.277a1.077,1.077,0,0,1-.763-.316l-3.023-3.023a1.079,1.079,0,0,1,1.526-1.527l2.26,2.259,4.419-4.419a1.08,1.08,0,1,1,1.527,1.527l-5.182,5.182a1.077,1.077,0,0,1-.763.316" transform="translate(-161.954 -867.847)"/>
      <path id="패스_1070" data-name="패스 1070" class="cls-2" d="M211.43,905.929H201.354a1.08,1.08,0,1,1,0-2.159H211.43a1.08,1.08,0,1,1,0,2.159" transform="translate(-180.685 -868.962)"/>
      <path id="패스_1071" data-name="패스 1071" class="cls-2" d="M211.43,915.47H201.354a1.08,1.08,0,0,1,0-2.159H211.43a1.08,1.08,0,0,1,0,2.159" transform="translate(-180.685 -874.76)"/>
    </g>
  </g>
  <rect id="사각형_526" data-name="사각형 526" class="cls-4" width="50" height="50"/>
</svg>
